<svg xmlns="http://www.w3.org/2000/svg" viewBox="-75 0 120 128.5" overflow="visible">
    <title>Mockup of channel part of EuroMPE module</title>
    <!-- all dimensions in mm -->
    <style>
        rect, circle {
            fill: none;
            stroke: black;
            stroke-width: 0.1;
        }
        g.hide rect {
            visibility: hidden;
        }
        g.hide rect.keep {
            visibility: visible;
        }
    </style>
    <g  class="xhide">
    <defs>
    <!-- jack origin is center of jack socket hole -->
        <symbol id="Thoniconn-vertical" width="9" height="12" viewBox="-4.5 -6 9 12">
            <circle r="3"/>
            <circle r="1.8"/>
        </symbol>
        <symbol id="Thoniconn-vertical-ud" width="9" height="12" viewBox="-4.5 -6 9 12">
            <circle r="3"/>
            <circle r="1.8"/>
        </symbol>
        <symbol id="Thoniconn-horizontal" height="9" width="12" viewBox="-6 -4.5 12 9">
            <circle r="3"/>
            <circle r="1.8"/>
        </symbol>
        <symbol id="RGBled" height="7.8" width="7.8" viewBox="-3.9 -3.9 7.8 7.8">
            <circle r="2.7" style="fill:#CE6"/>
        </symbol>
        <symbol id="SongHuei" height="12.5" width="10.6" viewBox="-5.3 -5.5 10.6 12.5">
            <circle r="3.2"/>
            <circle r="3.0"/>
            <!-- <circle r="0.7" style="fill:yellow"/>  -->
        </symbol>
        <symbol id="oled091" height="21.844" width="33.02" viewBox="0 0 21.844 33.02">
        <!-- origin is upper left -->
            <circle cx="2.54" cy="2.54" r="1.27"/>
            <circle cx="30.48" cy="2.54" r="1.27"/>
            <circle cx="2.54" cy="19.304" r="1.27"/>
            <circle cx="30.48" cy="19.304" r="1.27"/>
            <rect x="2.54" y="5.207" width="29.972" height="11.43" style="fill:#444"/>
        </symbol>
        <symbol id="SMDtact" height="6" width="6" viewBox="-3 -3 6 6">
        <!-- origin is center of switch -->
            <rect x="-3" y="-3" width="6" height="6" style="fill:#CC9"/>
            <circle r="2.5" style="fill:#997"/>

        </symbol>
        <symbol id="Deltron" height="17.9" width="17.9" viewBox="-8.93 -8.93 17.9 17.9">
        <!-- origin is center of socket -->
            <circle r="7.95"/>
            <circle r="8.925"/>
        </symbol>
        <symbol id="SparkfunRGBencoder" width="14" height="14.5" viewBox="-7 -7 14 14.5">
            <circle r="4.5"/>
            <circle r="3" style="fill:#9F9"/>
        </symbol>
    </defs>
        
    <!-- outside edge of panel, 14(main)+8(channel) = 22HP -->
    <rect class="keep" x="-71.4" y="0" width="111.4" height="128.5"/>
    <!-- circular holes just to indicate position -->
    <circle r="1.6" cx="-58.78" cy="3"/>
    <circle r="1.6" cx="-58.78" cy="125.5"/>
    <circle r="1.6" cx="33.2" cy="3"/>
    <circle r="1.6" cx="33.2" cy="125.5"/>

    <!-- allowable PCB area -->
    <rect  class="keep" x="-71.4" y="10.25" width="111.4" height="108" stroke-dasharray="0.3 0.7" stroke="#666"/>

    <!-- move origin to top of pcb area -->
    <g id="pcb-area" transform="translate(0, 10.25)">


    <!-- gate and trigger and LED -->
    <g transform="translate(0, -76)">
        <use href="#RGBled" x="5" y="76"/>
        <use href="#RGBled" x="25" y="76" />

        <use href="#Thoniconn-vertical-ud" x="10" y="95.2"/> 
        <use href="#Thoniconn-vertical" x="0" y="87.2"/> 
        <use href="#Thoniconn-vertical-ud" x="31" y="95.2"/> 
        <use href="#Thoniconn-vertical" x="21" y="87.2"/> 
        <!-- tune -->
        <use href="#Thoniconn-vertical-ud" x="0" y="105.2"/> 
        <use href="#Thoniconn-vertical-ud" x="21" y="105.2"/> 
    </g>

    <!-- pitch dac -->
        <g transform="translate(0, -41)">
        <use href="#Thoniconn-vertical-ud" x="0" y="96"/> 
        <use href="#Thoniconn-vertical" x="10" y="88"/> 
        <use href="#Thoniconn-vertical-ud" x="21" y="96"/> 
        <use href="#Thoniconn-vertical" x="31" y="88"/> 
    </g>

    <use href="#SongHuei" x="-28" y="96.5"/>
    <use href="#SongHuei" x="-15" y="88.5"/>
    <use href="#SongHuei" x="-28" y="80.5"/>
    <use href="#SongHuei" x="-15" y="72.5"/>

    <!-- perf DAC -->
    <use href="#Thoniconn-vertical-ud" x="0" y="96"/> 
    <use href="#Thoniconn-vertical" x="10" y="88"/> 
    <use href="#Thoniconn-vertical-ud" x="21" y="96"/> 
    <use href="#Thoniconn-vertical" x="31" y="88"/> 

    <use href="#Thoniconn-vertical" x="0" y="80"/> 
    <use href="#Thoniconn-vertical" x="10" y="72"/> 
    <use href="#Thoniconn-vertical" x="21" y="80"/> 
    <use href="#Thoniconn-vertical" x="31" y="72"/> 

    </g>

    <g transform="rotate(-90 20 90) translate(36 -42)">
<!-- perf DAC 2 -->
    <use href="#Thoniconn-vertical-ud" x="0" y="96"/> 
    <use href="#Thoniconn-vertical" x="10" y="88"/> 
    <use href="#Thoniconn-vertical-ud" x="21" y="96"/> 
    <use href="#Thoniconn-vertical" x="31" y="88"/> 

    <use href="#Thoniconn-vertical" x="0" y="80"/> 
    <use href="#Thoniconn-vertical" x="10" y="72"/> 
    <use href="#Thoniconn-vertical" x="21" y="80"/> 
    <use href="#Thoniconn-vertical" x="31" y="72"/> 
    </g>

    <!-- screen -->
    <use href="#oled091" x="-60" y="12"/>
    <use href="#SMDtact" x="-68" y="12"/>
    <use href="#SMDtact" x="-59" y="12"/>
    <use href="#SMDtact" x="-68" y="20"/>
    <use href="#SMDtact" x="-59" y="20"/>
    <use href="#SparkfunRGBencoder" x="-24" y="12"/>

    <!-- <use href="#Deltron" x="-60" y="50"/> -->
    <!-- DIN socket -->
    <g transform="translate(-59 54)">
        <circle r="7.95"/>
        <circle r="8.925"/>
    </g>

    <!-- USB-B receptacle -->
    <!-- vertical -->

    <g transform="translate(-60 96)">
        <circle cy="-14.25" r="1.6" style="fill: #EEE"/>
        <circle cy="14.25" r="1.6" style="fill: #EEE"/>
        <rect y="-9" x="-7" height="18" width="14" style="fill:white"/>
        <rect y="-6" x="-5.58" height="12" width="11.16" style=""/>
        <rect y="-4.225" x="-3.89" height="8.45" width="7.78" style="fill:#BBB"/>
        <rect y="-2.8" x="-1.59" height="5.6" width="3.18" style="fill:white"/>
    </g>

    <!-- USB-A receptacle, vertical -->
    <g transform="translate(-43 96)">
        <circle cy="-15" r="1.6" style="fill: #EEE"/>
        <circle cy="15" r="1.6" style="fill: #EEE"/>
        <rect y="-8" x="-5.95" height="16" width="11.9" style="fill:white"/>
        <!-- <rect y="-6" x="-5.58" height="12" width="11.16" style=""/> -->
        <rect y="-7.325" x="-3.55" height="14.65" width="7.1" style="fill:#BBB"/>
        <rect y="-5.55" x="0.8" height="11.10" width="2" style="fill:white"/>
    </g>
    
    
    </g>
</svg>