<svg xmlns="http://www.w3.org/2000/svg" viewBox="0 0 40 128.5">
    <title>Mockup of channel part of EuroMPE module</title>
    <!-- all dimensions in mm -->
    <style>
        rect, circle {
            fill: none;
            stroke: black;
            stroke-width: 0.1;
        }
        g.hide rect {
            visibility: hidden;
        }
        g.hide rect.keep {
            visibility: visible;
        }
    </style>
    <g  class="xhide">
    <defs>
    <!-- jack origin is center of jack socket hole -->
        <symbol id="Thoniconn-vertical" width="9" height="12" viewBox="-4.5 -6 9 12">
            <rect x="-4.5" y="-6" width="9" height="10.5" style="fill: #BBB"/>
            <rect x="-4" y="-3" width="8" height="6"/>
            <rect x="-0.4" y="4.5" width="0.8" height="1.5"/>
            <circle r="3"/>
            <circle r="1.8"/>
        </symbol>
        <symbol id="Thoniconn-vertical-ud" width="9" height="12" viewBox="-4.5 -6 9 12">
            <rect x="-4.5" y="-4.5" width="9" height="10.5" style="fill: #BBB"/>
            <rect x="-4" y="-3" width="8" height="6"/>
            <rect x="-0.4" y="-6.0" width="0.8" height="1.5"/>
            <circle r="3"/>
            <circle r="1.8"/>
        </symbol>
        <symbol id="Thoniconn-horizontal" height="9" width="12" viewBox="-6 -4.5 12 9">
            <rect y="-4.5" x="-6" height="9" width="10.5" style="fill: #BBB"/>
            <rect y="-4" x="-3" height="8" width="6"/>
            <rect y="-0.4" x="4.5" height="0.8" width="1.5"/>
            <circle r="3"/>
            <circle r="1.8"/>
        </symbol>
        <symbol id="RGBled" height="7.8" width="7.8" viewBox="-3.9 -3.9 7.8 7.8">
            <rect x="-3.9" y="-3.9" width="7.8" height="7.8" style="fill: #DCC"/>
            <circle r="2.7" style="fill:#CE6"/>
        </symbol>
    </defs>
    <!-- outside edge of panel, 6HP -->
    <rect class="keep" x="0" y="0" width="40" height="128.5"/>

    <!-- allowable PCB area -->
    <rect  class="keep" x="0" y="10.25" width="40" height="108" stroke-dasharray="0.3 0.7" stroke="#666"/>

    <!-- move origin to top of pcb area -->
    <g id="pcb-area" transform="translate(0, 10.25)">


    <!-- gate and trigger and LED -->
    <g transform="translate(0, -76)">
        <use href="#RGBled" x="5" y="76"/>
        <use href="#RGBled" x="25" y="76" />
        <!-- to gate and trig and LED board 14 at 0.1 inch -->
        <rect x="2.22" y="84.2" width="35.56" height="2.54" style="fill:#55A"/>
        <use href="#Thoniconn-vertical-ud" x="10" y="95.2"/> 
        <use href="#Thoniconn-vertical" x="0" y="87.2"/> 
        <use href="#Thoniconn-vertical-ud" x="31" y="95.2"/> 
        <use href="#Thoniconn-vertical" x="21" y="87.2"/> 
        <!-- tune -->
        <use href="#Thoniconn-vertical-ud" x="0" y="105.2"/> 
        <use href="#Thoniconn-vertical-ud" x="21" y="105.2"/> 
        <!-- to tune board, 2 groups of 3 at 0.1 inch -->
        <rect x="9.5" y="109.3" width="2.54" height="7.62" style="fill:#855"/>
        <rect x="30.5" y="109.3" width="2.54" height="7.62" style="fill:#855"/>

        <rect x="1" y="83" width="38" height="34.4" style="stroke: #668"/>

        <rect x="0" y="76" width="40" height="41.4" style="stroke: #966"/>
    </g>
    <g>

        <!-- <rect x="0" y="32.3" width="40" height="12" style="stroke: #966"/> -->
    </g>

    <!-- pitch dac -->
    <g transform="translate(0, -41)">
        <use href="#Thoniconn-vertical-ud" x="0" y="96"/> 
        <use href="#Thoniconn-vertical" x="10" y="88"/> 
        <use href="#Thoniconn-vertical-ud" x="21" y="96"/> 
        <use href="#Thoniconn-vertical" x="31" y="88"/> 
        <!-- Lower DAC connector 6 at 0.1inch spacing -->
        <rect x="12.38" y="108.3" width="15.24" height="2.54" style="fill:#555"/>
        <!-- board is 29.7mm wide -->
        <rect x="5.15" y="108.3" width="29.7" height="2.54" style="stroke: #696"/>
        <!-- Upper DAC connector -->
        <rect x="12.38" y="85" width="15.24" height="2.54" style="fill:#555"/>
        <rect x="5.15" y="85" width="29.7" height="2.54" style="stroke: #696"/>
        <!-- DAC boards are 23.3mm apart at pin centers. seems too much. -->
        <rect x="0" y="84.5" width="40" height="27" style="stroke: #966"/>
    </g>

    <!-- perf DAC -->
    <use href="#Thoniconn-vertical-ud" x="0" y="96"/> 
    <use href="#Thoniconn-vertical" x="10" y="88"/> 
    <use href="#Thoniconn-vertical-ud" x="21" y="96"/> 
    <use href="#Thoniconn-vertical" x="31" y="88"/> 

    <use href="#Thoniconn-vertical" x="0" y="80"/> 
    <use href="#Thoniconn-vertical" x="10" y="72"/> 
    <use href="#Thoniconn-vertical" x="21" y="80"/> 
    <use href="#Thoniconn-vertical" x="31" y="72"/> 

    <!-- to op-amp buffer board, 4 groups of 3 (2 signal, 1 gnd) at 0.1 inch -->
    <rect x="7" y="72" width="2.54" height="7.62" style="fill:#575"/>
    <rect x="28" y="72" width="2.54" height="7.62" style="fill:#575"/>
    <rect x="9.5" y="100" width="2.54" height="7.62" style="fill:#575"/>
    <rect x="30.5" y="100" width="2.54" height="7.62" style="fill:#575"/>

    <rect x="6" y="72" width="27.8" height="36" style="stroke: #686"/>

    <rect x="0" y="72" width="40" height="36" style="stroke: #966"/>

        <!-- channel separator -->
    <rect x="19.4" y="0" width="1.2" height="108" style="fill:#777;fill-opacity:0.2;stroke:none"/>
    </g>
    </g>
</svg>