<svg xmlns="http://www.w3.org/2000/svg" viewBox="-71 -1 122 130" overflow="visible">
    <title>Mockup of channel part of EuroMPE module</title>
    <!-- all dimensions in mm -->
    <style>
        rect, circle {
            fill: none;
            stroke: black;
            stroke-width: 0.1;
        }
        g.hide rect {
            visibility: hidden;
        }
        g.hide rect.keep {
            visibility: visible;
        }
    </style>
    <g  class="xhide">
    <defs>
    <!-- jack origin is center of jack socket hole -->
        <symbol id="Thoniconn-vertical" width="9" height="12" viewBox="-4.5 -6 9 12">
            <circle r="3"/>
            <circle r="1.8"/>
        </symbol>
        <symbol id="Thoniconn-vertical-ud" width="9" height="12" viewBox="-4.5 -6 9 12">
            <circle r="3"/>
            <circle r="1.8"/>
            <!-- <circle r="0.7" style="fill:blue"/>  -->
        </symbol>
        <symbol id="Thoniconn-horizontal" height="9" width="12" viewBox="-6 -4.5 12 9">
            <circle r="3"/>
            <circle r="1.8"/>
        </symbol>
        <symbol id="RGBled" height="7.8" width="7.8" viewBox="-3.9 -3.9 7.8 7.8">
            <rect x="-3.9" y="-3.9" width="7.8" height="7.8" style="fill: #DCC"/>
            <circle r="2.7" style="fill:#CE6"/>
        </symbol>
        <symbol id="SongHuei" height="12.5" width="10.6" viewBox="-5.3 -5.5 10.6 12.5">
            <circle r="3.2"/>
            <circle r="3.0"/>
        </symbol>
        <symbol id="oled091" height="21.844" width="33.02" viewBox="0 0 21.844 33.02">
        <!-- origin is upper left -->
            <rect x="0" y="0" height="21.844" width="33.02"/>
            <circle cx="2.54" cy="2.54" r="1.27"/>
            <circle cx="30.48" cy="2.54" r="1.27"/>
            <circle cx="2.54" cy="19.304" r="1.27"/>
            <circle cx="30.48" cy="19.304" r="1.27"/>
            <rect x="2.54" y="5.207" width="29.972" height="11.43" style="fill:#444"/>
        </symbol>
        <symbol id="oled13" height="35.18" width="35.19" viewBox="0 0 35.19 35.18">
        <!-- origin is upper left -->
            <circle cx="3.05" cy="3.05" r="1.27"/>
            <circle cx="32.14" cy="3.05" r="1.27"/>
            <circle cx="3.05" cy="32.512" r="1.27"/>
            <circle cx="32.14" cy="32.512" r="1.27"/>
            <rect x="0" y="6.32" width="35.19" height="19" style="fill:#444"/>
        </symbol>
        <symbol id="CKtact" height="12" width="12" viewBox="-6 -6 12 12">
        <!-- origin is center of switch -->
            <circle r="6" style="fill:#CC9"/>
            <circle r="4.5"/>
        </symbol>
        <symbol id="SMDtact" height="6" width="6" viewBox="-3 -3 6 6">
        <!-- origin is center of switch -->
            <rect x="-3" y="-3" width="6" height="6" style="fill:#CC9"/>
            <circle r="2.5" style="fill:#997"/>

        </symbol>
        <symbol id="Deltron" height="17.9" width="17.9" viewBox="-8.93 -8.93 17.9 17.9">
        <!-- origin is center of socket -->
            <circle r="7.95"/>
            <circle r="8.925"/>
        </symbol>

        <symbol id="SparkfunRGBencoder" width="18" height="18.5" viewBox="-9 -9 18 18.5">
            <circle r="6.25" style="stroke:#557; stroke-width:0.5"/>
            <circle r="4.5"/>
            <circle r="3" />
        </symbol>
        <symbol id="Teensy4.1vertical" width="18.3" height="61.7" viewbox="0 0 18.3 61.7">
            <rect x="0" y="0.7" width="18.3" height="61" style="fill:#0602"/>
            <rect x="5.12" y="0" width="8.06" height="5.7"/>
        </symbol>
        <symbol id="Teensy4.1horizontal" width="61.7" height="18.3" viewbox="0 0 61.7 18.3">
            <rect x="0" y="0" width="61" height="18.3" style="fill:#0602"/>
            <rect x="56" y="5.12" width="5.7 " height="8.06"/>
        </symbol>

    </defs>
    <!-- outside edge of panel, 6HP -->
    <!-- <rect class="keep" x="0" y="0" width="40" height="128.5"/> -->

    <!-- allowable PCB area -->
    <!-- <rect  class="keep" x="0" y="10.25" width="40" height="108" stroke-dasharray="0.3 0.7" stroke="#666"/> -->

    <!-- outside edge of panel, 16(main)+8(channel) = 24HP  = 121.60mm -->
    <rect class="keep" x="-71.4" y="0" width="121.6" height="128.5"/>
    <!-- circular holes just to indicate position -->
    <circle r="1.6" cx="-58.78" cy="3"/>
    <circle r="1.6" cx="-58.78" cy="125.5"/>
    <circle r="1.6" cx="43.36" cy="3"/>
    <circle r="1.6" cx="43.36" cy="125.5"/>

    <!-- allowable PCB area -->
    <rect  class="keep" x="-71.4" y="10.25" width="121.6" height="108" stroke-dasharray="0.3 0.7" stroke="#666"/>


    <!-- move origin to top of pcb area -->
    <g id="pcb-area" transform="translate(0, 10.25)">


    <!-- gate and trigger and LED -->
    <g transform="translate(8, -76)">
        <use href="#RGBled" x="5" y="76"/>
        <use href="#RGBled" x="26" y="76" />
        <!-- to gate and trig and LED board 14 at 0.1 inch -->
        <!-- <use href="#Thoniconn-vertical-ud" x="10" y="95.2"/>  -->
        <use href="#Thoniconn-vertical" x="0" y="87.2"/> 
        <use href="#Thoniconn-vertical" x="10" y="87.2"/> 
        <!-- <use href="#Thoniconn-vertical-ud" x="31" y="95.2"/>  -->
        <use href="#Thoniconn-vertical" x="31" y="87.2"/> 
        <use href="#Thoniconn-vertical" x="21" y="87.2"/> 
        <!-- tune -->
        <use href="#Thoniconn-vertical-ud" x="5" y="99.3"/> 
        <use href="#Thoniconn-vertical-ud" x="26" y="99.3"/> 
    </g>

    <!-- pitch dac -->
    <g transform="translate(8, -48.4)">
        <!-- <use href="#Thoniconn-vertical-ud" x="0" y="96"/>  -->
        <use href="#Thoniconn-vertical" x="0" y="88"/> 
        <use href="#Thoniconn-vertical" x="10" y="88"/> 
        <!-- <use href="#Thoniconn-vertical-ud" x="21" y="96"/>  -->
        <use href="#Thoniconn-vertical" x="21" y="88"/> 
        <use href="#Thoniconn-vertical" x="31" y="88"/> 
        
    </g>

    <g transform="translate(8,-17)">
        <!-- perf DAC -->
        <!-- 13mm center-to-center vertical spacing -->
        <use href="#Thoniconn-vertical" x="5" y="73"/> 
        <use href="#Thoniconn-vertical" x="26" y="73"/> 

        <use href="#Thoniconn-vertical" x="5" y="86"/> 
        <use href="#Thoniconn-vertical" x="26" y="86"/> 

        <use href="#Thoniconn-vertical" x="5" y="99"/> 
        <use href="#Thoniconn-vertical" x="26" y="99"/> 

        <use href="#Thoniconn-vertical" x="5" y="112"/> 
        <use href="#Thoniconn-vertical" x="26" y="112"/> 

        
        <!-- fader pots align with jacks-->
        <g transform="translate(-1.5,0.5)">
        <use href="#SongHuei" x="-14" y="112"/>
        <use href="#SongHuei" x="-14" y="99"/>
        <use href="#SongHuei" x="-14" y="86"/>
        <use href="#SongHuei" x="-14" y="73"/>
        </g>
      
    </g>
    <!-- that takes it to 109mm high overall, should still fit -->


        <!-- channel separator -->
    <rect x="27.4" y="0" width="1.2" height="108" style="fill:#777;fill-opacity:0.2;stroke:none"/>
    </g>

    <g transform="rotate(-90 20 90) translate(29 -68.5)" >
<!-- perf DAC 2 -->
<!-- is going to need a totally different front jack board that mates to the same perfdac board -->
        <use href="#Thoniconn-vertical" x="8" y="73"/> 
        <use href="#Thoniconn-vertical" x="23" y="73"/> 

        <use href="#Thoniconn-vertical" x="8" y="86"/> 
        <use href="#Thoniconn-vertical" x="23" y="86"/> 

        <use href="#Thoniconn-vertical" x="8" y="99"/> 
        <use href="#Thoniconn-vertical" x="23" y="99"/> 

        <use href="#Thoniconn-vertical" x="8" y="112"/> 
        <use href="#Thoniconn-vertical" x="23" y="112"/> 

    </g>


    <g transform="translate(2, 0)">
        <!-- screen, buttons, encoder-->
        <use href="#oled13" x="-53" y="11"/>
        <use href="#SMDtact" x="-71" y="19.5"/>
        <use href="#SMDtact" x="-63" y="19.5"/>
        <use href="#SMDtact" x="-71" y="29"/>
        <use href="#SMDtact" x="-63" y="29"/>
        <rect x="-72" y="18" width="16" height="18" class="keep"/>
        <use href="#SparkfunRGBencoder" x="-15" y="18"/>
    </g>


    <!-- DIN socket -->
    <g transform="translate(-26 97)">
        <circle r="7.95"/>  <!-- 15.9 / 2 -->
        <circle r="8.925"/> <!-- 17.85 / 2 -->
    </g>

    <!-- USB-B receptacle, vertical -->
    <g transform="translate(-62 97)">
        <!-- <circle cy="-11.37" r="7.075" style="stroke:none; fill: #333"/>
        <circle cy="11.37" r="7.075" style="stroke:none; fill: #333"/>
        <rect y="-11.37" x="-7.075" height="22.74" width="14.17" style="stroke:none; fill: #333"/> -->
        <circle cy="-11.37" r="1.6" style="fill: #EEE"/>
        <circle cy="11.37" r="1.6" style="fill: #EEE"/>
        <!-- <rect y="-9" x="-7" height="18" width="14" style="fill:white"/> -->
        <rect y="-6" x="-5.58" height="12" width="11.16" style="fill:#121"/>
        <rect y="-4.225" x="-3.89" height="8.45" width="7.78" style="fill:#BBB"/>
        <rect y="-2.8" x="-1.59" height="5.6" width="3.18" style="fill:white"/>
    </g>

    <!-- are these too close together to plug/unplug easily? -->
    <!-- USB-A receptacle, vertical -->
    <g transform="translate(-44 97)">
        <!-- <circle cy="-15" r="5.575" style="stroke:none; fill: #996"/>
        <circle cy="15" r="5.575" style="stroke:none; fill: #996"/>
        <rect y="-15" x="-5.575" height="30" width="11.15" style="stroke:none; fill: #996"/> -->
        <circle cy="-15" r="1.6" style="fill: #EEE"/>
        <circle cy="15" r="1.6" style="fill: #EEE"/>
        <!-- <rect y="-8" x="-5.575" height="16" width="11.15" style="fill:white"/> -->
        <!-- <rect y="-6" x="-5.58" height="12" width="11.16" style=""/> -->
        <rect y="-7.325" x="-3.55" height="14.65" width="7.1" style="fill:#BBB"/>
        <rect y="-5.55" x="0.8" height="11.10" width="2" style="fill:white"/>
    </g>

    
    
    </g>
</svg>