<svg xmlns="http://www.w3.org/2000/svg" viewBox="-71 -1 122 130" overflow="visible">
    <title>Mockup of channel part of EuroMPE module</title>
    <!-- all dimensions in mm -->
    <style>
        rect, circle {
            fill: none;
            stroke: black;
            stroke-width: 0.1;
        }
        g.hide rect {
            visibility: hidden;
        }
        g.hide rect.keep {
            visibility: visible;
        }
    </style>
    <g  class="xhide">
    <defs overflow="visible">
    <!-- jack origin is center of jack socket hole -->
        <symbol id="Thoniconn-vertical" width="9" height="12.5" viewBox="-4.5 -6 9 12.5">
            <rect x="-4.5" y="-6" width="9" height="10.5" style="fill: #BBB"/>
            <rect x="-4" y="-3" width="8" height="6"/>
            <rect x="-0.4" y="4.5" width="0.8" height="2"/>
            <circle r="3"/>
            <circle r="1.8"/>
            <circle r="0.7" style="fill:blue"/> 
        </symbol>
        <symbol id="Thoniconn-vertical-ud" width="9" height="12.5" viewBox="-4.5 -6 9 12.5">
            <rect x="-4.5" y="-4.5" width="9" height="10.5" style="fill: #BBB"/>
            <rect x="-4" y="-3" width="8" height="6"/>
            <rect x="-0.4" y="-6.4" width="0.8" height="2"/>
            <circle r="3"/>
            <circle r="1.8"/>
            <circle r="0.7" style="fill:blue"/> 
        </symbol>
        <symbol id="Thoniconn-horizontal" height="9" width="12" viewBox="-6 -4.5 12 9">
            <rect y="-4.5" x="-6" height="9" width="10.5" style="fill: #BBB"/>
            <rect y="-4" x="-3" height="8" width="6"/>
            <rect y="-0.4" x="4.5" height="0.8" width="1.5"/>
            <circle r="3"/>
            <circle r="1.8"/>
        </symbol>
        <symbol id="RGBled" height="7.8" width="7.8" viewBox="-3.9 -3.9 7.8 7.8">
            <circle r="2.9" style="fill:#999"/>
            <circle r="2.5" style="fill:#CE6"/>
        </symbol>
        <symbol id="SongHuei" height="13.5" width="10.6" viewBox="-5.3 -5.5 10.6 13.5">
            <rect x="-4.85" y="-5.5"  height="12.5" width="9.7" style="fill: #BBB"/>
            <rect x="-3" y="7" height="1" width="6" style="fill: #AAA"/>
            <rect x="-5.3" y="-1.1" height="2.2" width="0.55"/>
            <rect x="4.75" y="-1.1" height="2.2" width="0.55"/>
            <circle r="3.2"/>
            <circle r="3.0"/>
            <circle r="0.7" style="fill:yellow"/> 
        </symbol>
        <symbol id="oled091" height="21.844" width="33.02" viewBox="0 0 21.844 33.02">
        <!-- origin is upper left -->
            <rect x="0" y="0" height="21.844" width="33.02"/>
            <circle cx="2.54" cy="2.54" r="1.27"/>
            <circle cx="30.48" cy="2.54" r="1.27"/>
            <circle cx="2.54" cy="19.304" r="1.27"/>
            <circle cx="30.48" cy="19.304" r="1.27"/>
            <rect x="2.54" y="5.207" width="29.972" height="11.43" style="fill:#444"/>
        </symbol>
        <symbol id="oled13" height="35.18" width="35.19" viewBox="0 0 35.19 35.18">
        <!-- origin is upper left -->
            <rect x="0" y="0" height="35.18" width="35.19" rx="3"/>
            <circle cx="3.05" cy="3.05" r="1.27"/>
            <circle cx="32.14" cy="3.05" r="1.27"/>
            <circle cx="3.05" cy="32.512" r="1.27"/>
            <circle cx="32.14" cy="32.512" r="1.27"/>
            <rect class="screen"  x="0" y="6.32" width="35.19" height="19" style="fill:#444"/>
        </symbol>
        <symbol id="CKtact" height="12" width="12" viewBox="-6 -6 12 12">
        <!-- origin is center of switch -->
            <circle r="6" style="fill:#CC9"/>
            <circle r="4.5"/>
        </symbol>
        <symbol id="SMDtact" height="6" width="6" viewBox="-3 -3 6 6">
        <!-- origin is center of switch -->
            <rect x="-3" y="-3" width="6" height="6" style="fill:#CC9"/>
            <circle r="2.5" style="fill:#997"/>

        </symbol>
        <symbol id="thonk-lopro" height="8.5" width="8.5" viewBox="-4.25 -4.25 8.5 8.5">
            <!-- origin is center of switch -->
            <rect x="-4.25" y="-4.25" width="8.5" height="8.5" style="fill:#CC9"/>
            <rect x="-1.95" y="-1.95" width="3.9" height="3.9" style="fill:#AA9"/>
            <circle r="3" style="fill:#997" fill-opacity="0.5"/>
            <circle r="3.2" style="fill:none" />

        </symbol>
        <symbol id="Deltron" height="17.9" width="17.9" viewBox="-8.93 -8.93 17.9 17.9">
        <!-- origin is center of socket -->
            <circle r="7.95"/>
            <circle r="8.925"/>
        </symbol>
        <symbol id="SparkfunRGBencoder" width="18" height="18.5" viewBox="-9 -9 18 18.5">
            <rect x="-6.2" y="-6.6" width="12.4" height="13.2" style="fill:#AAA"/>
            <rect x="-7" y="-1" width="0.8" height="2" />
            <rect x="6.2" y="-1" width="0.8" height="2" />
            <rect x="-5" y="-7" width="10" height="0.5" />
            <rect x="-3.5" y="6.5" width="7" height="1" />
            <!-- 12mm Thonk encoder knob for t18 skirt is 17mm -->
            <!-- 10mm small D-shaft is 12.5mm  -->
            <circle r="6.25" style="stroke:#557; stroke-width:0.5"/>
            <circle r="4.5"/>
            <circle r="3"/>
        </symbol>
        <symbol id="Teensy4.1vertical" width="18.3" height="61.7" viewBox="0 0 18.3 61.7">
            <rect x="0" y="0.7" width="18.3" height="61" style="fill:#0602"/>
            <rect x="5.12" y="0" width="8.06" height="5.7"/>
        </symbol>
        <symbol id="Teensy4.1horizontal" width="61.7" height="18.3" viewBox="0 0 61.7 18.3">
            <rect x="0" y="0" width="61" height="18.3" style="fill:#0602"/>
            <rect x="56" y="5.12" width="5.7 " height="8.06"/>
        </symbol>
        <symbol id="standoff" width="6" height="6" viewBox="-3 -3 6 6">
            <circle r="3" style="fill: #550; fill-opacity:0.5"/>
            <circle r="1.6" style="fill: #222"/>
        </symbol>
    </defs>
    
    <!-- outside edge of panel, 16(main)+8(channel) = 24HP  = 121.60mm -->
    <rect class="keep" x="-71.4" y="0" width="121.6" height="128.5"/>
    <!-- circular holes just to indicate position -->
    <circle r="1.6" cx="-58.78" cy="3"/>
    <circle r="1.6" cx="-58.78" cy="125.5"/>
    <circle r="1.6" cx="43.36" cy="3"/>
    <circle r="1.6" cx="43.36" cy="125.5"/>

    <!-- absolute max between rails -->
    <rect  class="keep" x="-71.4" y="8.25" width="121.6" height="112" stroke-dasharray="0.32 0.8" stroke="#966" stroke-opacity="0.5"/>


    <!-- allowable PCB area -->
    <rect  class="keep" x="-71.4" y="10.25" width="121.6" height="108" stroke-dasharray="0.3 0.7" stroke="#666" />


    <!-- move origin to top of pcb area, so y-down origin is 118.25 -->
    <g id="pcb-area" transform="translate(0, 10.25)">

<!-- SVG origin, Y-down -->
    <!-- <circle style="fill: red" cx="0" cy="0" r="2"/> -->

    <!-- FPD origin, bottom, left, Y-up -->
    <!-- <circle style="fill: lime; fill-opacity=0.2" cx="-71.4" cy="118.25" r="1"/> -->

    <!-- gate and trigger and LED -->
    <g transform="translate(8, -76)">
        <rect x="0" y="76" width="40" height="31.8" style="stroke: #668; fill: #93B; fill-opacity: 0.3"/>
        <rect x="0" y="76" width="40" height="31.8" style="stroke: #966"/>
        <use href="#RGBled" x="5.6" y="75.5"/>
        <use href="#RGBled" x="26.6" y="75.5" />
 
        <use href="#Thoniconn-vertical" x="0" y="83.5"/> 
        <use href="#Thoniconn-vertical" x="10" y="83.5"/> 
        <use href="#Thoniconn-vertical" x="31" y="83.5"/> 
        <use href="#Thoniconn-vertical" x="21" y="83.5"/> 
        <!-- tune -->
        <use href="#Thoniconn-vertical-ud" x="5" y="95.3"/> 
        <use href="#Thoniconn-vertical-ud" x="26" y="95.3"/> 
    </g>

    <!-- thus in FPD coords, x = x +71.4; y = 118.25 - y -->
    <!-- LEDs -->
    <!--  88.9,  114.35 -->
    <!-- <circle style="fill: maroon; fill-opacity: 0.3" cx="17.5" cy="3.9" r="1"/> -->
    <!--  109.9,  114.35 -->
    <!-- <circle style="fill: maroon; fill-opacity: 0.3" cx="38.5" cy="3.9" r="1"/> -->
    <!-- gate and trigger -->
    <!--  83.9,  101.09 -->
    <!-- <circle style="fill: maroon; fill-opacity: 0.3" cx="12.5" cy="17.16" r="1"/> -->
    <!--  93.9,  101.09 -->
    <!-- 104.9,  101.09 -->
    <!-- 114.9,  101.09 -->
    <!-- <circle style="fill: maroon; fill-opacity: 0.3" cx="43.5" cy="17.16" r="1"/> -->
    <!-- tune-in -->
    <!-- (88.9, 88.93) -->
    <!-- <circle style="fill: maroon; fill-opacity: 0.3" cx="17.5" cy="29.32" r="1"/> -->
    <!-- 109.9 88.93) -->
    <!-- <circle style="fill: maroon; fill-opacity: 0.3" cx="38.5" cy="29.32" r="1"/> -->


    <!-- pitch dac -->

    <g transform="translate(8, -51)">
        <rect x="0" y="84.5" width="40" height="18.7" style="stroke: #966; fill: #263; fill-opacity:0.3"/>

        <use href="#Thoniconn-vertical" x="0" y="88"/> 
        <use href="#Thoniconn-vertical" x="10" y="88"/> 
        <use href="#Thoniconn-vertical" x="21" y="88"/> 
        <use href="#Thoniconn-vertical" x="31" y="88"/> 
        <!-- Lower DAC connector 6 at 0.1inch spacing -->
        <rect x="12.38" y="100.2" width="15.24" height="2.54" style="fill:#555"/>
        <!-- board is 29.7mm wide -->
        <rect x="5.15" y="100.2" width="29.7" height="2.54" style="stroke: #696"/>
        <!-- Upper DAC connector -->
        <rect x="12.38" y="85" width="15.24" height="2.54" style="fill:#555"/>
        <rect x="5.15" y="85" width="29.7" height="2.54" style="stroke: #696"/>
        <!-- DAC boards are 23.3mm apart at pin centers. seems too much. -->
    </g>
    <!-- thus in FPD coords, x = x +71.4; y = 118.25 - y -->
    <!-- 83.9,  72.617 -->
    <!-- <circle style="fill: maroon; fill-opacity: 0.3" cx="12.5" cy="45.633" r="1"/> -->
    <!-- 93.9,  72.617 -->
    <!-- 104.9,  72.617 -->
    <!-- 114.9,  72.617 -->
    <!-- <circle style="fill: maroon; fill-opacity: 0.3" cx="43.5" cy="45.633" r="1"/> -->

    <g transform="translate(8,-18.9)">
        <!-- trimmers  and jacks -->
        <rect x="-23.5" y="72" width="59.5" height="55.4" style="fill: maroon; fill-opacity: 0.4; stroke: #966"/>
        <!-- power -->
        <rect x="-23.5" y="72" width="32" height="55.118" style="fill: lime; fill-opacity: 0.2; stroke: #966"/>

        <!-- perf DAC jacks and trimmers-->
        <!-- 13mm center-to-center vertical spacing -->
        <!-- 21mm horizontal spacing -->
        <use href="#Thoniconn-vertical" x="5" y="72"/> 
        <use href="#Thoniconn-vertical" x="26" y="72"/> 

        <use href="#Thoniconn-vertical" x="5" y="85.5"/> 
        <use href="#Thoniconn-vertical" x="26" y="85.5"/> 

        <use href="#Thoniconn-vertical" x="5" y="99"/> 
        <use href="#Thoniconn-vertical" x="26" y="99"/> 

        <use href="#Thoniconn-vertical" x="5" y="112.5"/> 
        <use href="#Thoniconn-vertical" x="26" y="112.5"/> 

        <!-- buffer board -->
        <rect x="9" y="76" width="23.4" height="46.5" style="fill: orange; fill-opacity: 0.6; stroke: #966" />

        <!-- power 11.2 3.6 -->
        <rect x="9.3" y="93.65" width="3.6" height="11.2" style="fill: orange"/>

        <!-- buffer to jack connections, 40.844 apart -->
        <rect x="13" y="78" width="13.7" height="3.5" style="fill: orange"/>
        <rect x="13" y="118.844" width="13.7" height="3.5" style="fill: orange"/>

        <!-- buffer to DAC connections, 33.274 apart  -->
        <rect x="16.5" y="81.8" width="16.3" height="3.6" style="fill:#787"/> 
        <rect x="16.5" y="115.074" width="16.3" height="3.6" style="fill:#787"/> 

        <!-- KiCad PerfDAC v2 board -->
        <!-- v2 needed to be less wide, taller -->
        <g transform="translate(3.7, 0)">
            <rect x="9.5" y="81.5" width="23.5" height="34.68" style="fill: green; fill-opacity: 0.2; stroke: #686"/>

            <!-- power -->
            <!-- <rect x="21.01" y="83.34" width="10.28" height="2.66" style="fill:#787"/> -->

            <!-- SPI 22.37 -->
            <rect x="29.37" y="88.77" height="20.44" width="2.66" style="fill:#787; "/>
        </g>
        
        <!-- fader pots align with jacks-->
        <g transform="translate(-1.5,0.5)">
        <use href="#SongHuei" x="-14" y="112.5"/>
        <use href="#SongHuei" x="-14" y="99"/>
        <use href="#SongHuei" x="-14" y="85.5"/>
        <use href="#SongHuei" x="-14" y="72"/>
        </g>



        <!-- guide lines -->
        <g transform="translate(5.5, 6)" style="fill:none; stroke:red; stroke-width:0.5; stroke-opacity: 0.2">
            <line x1="-15" y1="72" x2="32" y2="72"/>
            <line x1="-15" y1="85.5" x2="32" y2="85.5"/>
            <line x1="-15" y1="99" x2="32" y2="99"/>
            <line x1="-15" y1="112.5" x2="32" y2="112.5"/>
            <g style="stroke: green">
                <line x1="-15.5" y1="73" x2="-15.5" y2="33"/>
            </g>
        </g>    

<!-- 
    standoff holes for power

    board top to top hole center (y) 4.826 mm
    top hole to bottom hole centers (y) 45 mm
    top hole center to left edge (x) 3.556 mm

    third hole to other hole centers (x) 22 mm @@ move to left, so 20mm
    board top to third hole center (y) 27.326 mm

    bottom hole center to bottom of board (y) 5.292 mm

    pads are 3mm radius, holes are 1.6mm radius

 -->
        <g transform="translate(-23.5, 72)" style="fill-opacity: 0.2">
        <!--  top left of power board is 0,0  -->
            <circle cx="3.556" cy="4.826" r="3" style="fill: orange"/>
            <circle cx="3.556" cy="4.826" r="1.6" style="fill: #222"/>
            <circle cx="3.556" cy="49.826" r="3" style="fill: orange"/>
            <circle cx="3.556" cy="49.826" r="1.6" style="fill: #222"/>
            <circle cx="23.556" cy="27.326" r="3" style="fill: orange"/>
            <circle cx="23.556" cy="27.326" r="1.6" style="fill: #222"/>
            <!-- <rect width="30" height="55.4" style="fill: yellow; fill-opacity:0.2"/> -->
        </g>    
    </g>

    <!-- thus in FPD coords, x = x +71.4; y = 118.25 - y -->
    <!-- pots -->
        <!-- (69.17, 56.25) -->
    <!-- <circle style="fill: maroon; fill-opacity: 0.3" cx="-2.23" cy="62.0" r="2.7"/> -->
        <!-- (69.17, 43.25) -->
    <!-- <circle style="fill: maroon; fill-opacity: 0.3" cx="-2.23" cy="75.0" r="2.7"/> -->
        <!-- (69.17, 30.25) -->
    <!-- <circle style="fill: maroon; fill-opacity: 0.3" cx="-2.23" cy="88.0" r="2.7"/> -->
        <!-- (69.17, 17.25) -->
    <!-- <circle style="fill: maroon; fill-opacity: 0.3" cx="-2.23" cy="101.0" r="2.7"/> -->
    <!-- (88.9  56.25) -->
    <!-- <circle style="fill: maroon; fill-opacity: 0.3" cx="17.5" cy="62.0" r="1"/> -->
    <!-- 109.9 56.25) -->
    <!-- <circle style="fill: maroon; fill-opacity: 0.3" cx="38.5" cy="62.0" r="1"/> -->

    <!-- <circle style="fill: maroon; fill-opacity: 0.3" cx="17.5" cy="75.0" r="1"/> -->
    <!-- <circle style="fill: maroon; fill-opacity: 0.3" cx="38.5" cy="75.0" r="1"/> -->

    <!-- <circle style="fill: maroon; fill-opacity: 0.3" cx="17.5" cy="88.0" r="1"/> -->
    <!-- <circle style="fill: maroon; fill-opacity: 0.3" cx="38.5" cy="88.0" r="1"/> -->

    <!-- <circle style="fill: maroon; fill-opacity: 0.3" cx="17.5" cy="101.0" r="1"/> -->
    <!-- <circle style="fill: maroon; fill-opacity: 0.3" cx="38.5" cy="101.0" r="1"/> -->

    <!-- that takes it to 109mm high overall, should still fit -->


        <!-- channel separator -->
    <rect x="27.4" y="0" width="1.2" height="108" style="fill:#777;fill-opacity:0.2;stroke:none"/>
    
    </g>

    <g transform="rotate(-90 20 90) translate(26 -70.5)" >
<!-- perf DAC 2 -->
<!-- is going to need a totally different front jack board that mates to the same perfdac board 
@@ moved all jacks over by 2mm to make room for power board; @@update the fpd
-->
        <use href="#Thoniconn-vertical" x="8" y="73"/> 
        <use href="#Thoniconn-vertical" x="23" y="73"/> 

        <use href="#Thoniconn-vertical" x="8" y="86"/> 
        <use href="#Thoniconn-vertical" x="23" y="86"/> 

        <use href="#Thoniconn-vertical" x="8" y="99"/> 
        <use href="#Thoniconn-vertical" x="23" y="99"/> 

        <use href="#Thoniconn-vertical" x="8" y="112"/> 
        <use href="#Thoniconn-vertical" x="23" y="112"/> 

        <rect x="8" y="72" width="24" height="52.4" style="stroke: #966"/>

        <!-- KiCad PerfDAC board -->
        <rect x="7" y="82" width="26.27" height="33.68" style="fill: green; fill-opacity: 0.2; stroke: #686"/>

        <!--  connectors to op-amp board -->
        <rect x="8.05" y="83.2" width="10.28" height="5.2" style="fill:#787"/>
        <rect x="8.05" y="109.60" width="10.28" height="5.2" style="fill:#787"/>

        <!-- power -->
        <rect x="21.01" y="83.34" width="10.28" height="2.66" style="fill:#787"/>

        <!-- SPI 22.37 -->
        <rect x="29.37" y="88.77" height="20.44" width="2.66" style="fill:#787"/>
    </g>



    
    <g transform="translate(2, 0)">
        <!-- screen, buttons, encoder-->
        <!-- 
        <use href="#SMDtact" x="-70" y="19.5"/>
        <use href="#SMDtact" x="-62" y="19.5"/>
        <use href="#SMDtact" x="-70" y="29"/>
        <use href="#SMDtact" x="-62" y="29"/> -->
        <use href="#oled13" x="-51" y="11"/>
        <!-- button centres spaced 9.5mm apart  horizontally and vertically -->
        <use href="#thonk-lopro" x="-71.5" y="18.2"/>
        <use href="#thonk-lopro" x="-62" y="18.2"/>
        <use href="#thonk-lopro" x="-71.5" y="27.7"/>
        <use href="#thonk-lopro" x="-62" y="27.7"/>
        <!-- <rect x="-71" y="18" width="16" height="18" class="keep"/> -->
        <use href="#SparkfunRGBencoder" x="-15" y="18"/>
        <!-- display, buttons, encoder board -->
        <!-- <rect x="-72.5" y="10.5" width="77" height="39.5" style="stroke: #966"/> -->
    </g>


<!-- thus in FPD coords, x = x +71.4; y = 118.25 - y -->
<!-- screen active area -->
<!-- (20.4, 100.9) -->
    <rect class="screen"  x="-49" y="17.35" width="35.19" height="19" style="fill:#744"/>

    <use href="#Teensy4.1horizontal" x="-65" y="24.2"/>
    <!-- MPU board -->
    <rect x="-70.5" y="10.5" width="77" height="39.5" style="stroke: #696"/>
    <!-- Europower -->
    <!-- <rect x="-33"  height="9.4" width="28" y="11.8" style="fill:#787; fill-opacity: 0.4"/> -->
    <!-- electrolytic caps -->
    <!-- <circle r="2.5" cx="-1" cy="16" style="fill:#ACF; fill-opacity: 0.4"/>
    <circle r="2.5" cx="-44" cy="16" style="fill:#ACF; fill-opacity: 0.4"/>
    <circle r="2.5" cx="-38" cy="16" style="fill:#ACF; fill-opacity: 0.4"/> -->

    <!-- DIN socket -->
    <g transform="translate(-26 99)">
        <circle r="7.95"/>  <!-- 15.9 / 2 -->
        <circle r="8.925"/> <!-- 17.85 / 2 -->
    </g>

    <!-- DataPro USB-B receptacle, vertical -->
    <g transform="translate(-62 99)">
        <circle cy="-13" r="6.05" style="stroke:none; fill: #333"/>
        <circle cy="13" r="6.05" style="stroke:none; fill: #333"/>
        <rect y="-13" x="-6.05" height="25.2" width="12.1" style="stroke:none; fill: #333"/>
        <rect y="-11" x="-6.85" height="22" width="13.7" style="stroke:none; fill: #333"/>
        <circle cy="-13" r="1.65" style="fill: #EEE"/>
        <circle cy="13" r="1.65" style="fill: #EEE"/>
        <rect y="-9" x="-6.5" height="18" width="13" style="fill:white"/>
        <!-- <rect y="-6" x="-5.58" height="12" width="11.16" style="fill:#121"/> -->
        <rect y="-5.95" x="-5.50" height="12.1" width="11.0" rx="0.5" style="fill:#141"/>
        <rect y="-4.225" x="-3.89" height="8.45" width="7.78" style="fill:#BBB"/>
        <rect y="-2.8" x="-1.59" height="5.6" width="3.18" style="fill:white"/>
    </g>

    <!-- are these too close together to plug/unplug easily? -->
    <!-- DataPro USB-A receptacle, vertical -->
    <!-- assume 9.6mm diameter for end stops -->
    <g transform="translate(-44 99)">
        <circle cy="-14.05" r="4.8" style="stroke:none; fill: #996"/>
        <circle cy="14.05" r="4.8" style="stroke:none; fill: #996"/>
        <rect y="-14.05" x="-4.8" height="28.1" width="9.6" style="stroke:none; fill: #996"/>
        <rect y="-11" x="-5.75" height="22" width="11.5" rx="0.3" style="stroke:none; fill: #996"/>
        <circle cy="-15" r="1.65" style="fill: #EEE"/>
        <circle cy="15" r="1.65" style="fill: #EEE"/>
        <rect y="-8.5" x="-5.575" height="17" width="11.15" style="fill:white"/>
        <!-- <rect y="-6" x="-5.58" height="12" width="11.16" style=""/> -->
        <rect y="-7.325" x="-3.55" height="14.65" width="7.1" style="fill:#BBB"/>
        <rect y="-5.55" x="0.8" height="11.10" width="2" style="fill:white"/>
    </g>


    
    </g>

    <!-- thus in FPD coords, x = x +71.4; y = 128.5 - y -->
    <!-- perfDAC 2 -->
        <!-- () -->
    <circle style="fill: maroon; fill-opacity: 0.3" cx="-61.5" cy="56.47" r="1"/>
    <circle style="fill: maroon; fill-opacity: 0.3" cx="-48.5" cy="56.47" r="1"/>
    <circle style="fill: maroon; fill-opacity: 0.3" cx="-35.5" cy="56.47" r="1"/>
    <circle style="fill: maroon; fill-opacity: 0.3" cx="-22.5" cy="56.47" r="1"/>
    <circle style="fill: maroon; fill-opacity: 0.3" cx="-61.5" cy="71.47" r="1"/>
    <circle style="fill: maroon; fill-opacity: 0.3" cx="-48.5" cy="71.47" r="1"/>
    <circle style="fill: maroon; fill-opacity: 0.3" cx="-35.5" cy="71.47" r="1"/>
    <circle style="fill: maroon; fill-opacity: 0.3" cx="-22.5" cy="71.47" r="1"/>

    <!-- USB-B - Hole is 8.45mm high, 7.78mm wide -->
    <rect  style="fill: maroon; fill-opacity: 0.3" x="-65.8" y="94.85" width="7.78" height="8.45" />

    <!-- USB-A hole is 12.5mm by 5.12mm -->
    <rect  style="fill: maroon; fill-opacity: 0.3" x="-47.54" y="91.75" width="7.12" height="14.5" />

    <!-- DIN socket 16mm dia  -->
    <circle style="fill: maroon; fill-opacity: 0.3" cx="-25.95" cy="99" r="7.6"/>

</svg>